<svg width="200" height="200" viewBox="0 0 200 200" fill="none" xmlns="http://www.w3.org/2000/svg">
<g clip-path="url(#clip0_1_2)">
<rect width="200" height="200" fill="#443023"/>
<rect width="200" height="200" fill="#443023"/>
<g clip-path="url(#clip1_1_2)">
<path d="M-18.5624 113.311C-19.8532 111.904 -20.7715 110.259 -21.2497 108.497C-21.7279 106.734 -21.7538 104.899 -21.3256 103.126C-14.9695 76.5117 19.4375 57.1875 60.5 57.1875C101.563 57.1875 135.969 76.5117 142.326 103.126C142.758 104.9 142.736 106.737 142.26 108.503C141.785 110.268 140.868 111.916 139.577 113.326C138.286 114.735 136.655 115.87 134.803 116.647C132.951 117.423 130.926 117.822 128.878 117.812H-7.87762C-9.92528 117.818 -11.9482 117.416 -13.7974 116.637C-15.6466 115.858 -17.275 114.722 -18.5624 113.311ZM147.125 154.551L111.939 165.918L80.1758 154.619C78.5447 154.042 76.7254 154.042 75.0943 154.619L43.442 165.843L11.7383 154.619C10.1775 154.067 8.44182 154.043 6.86211 154.551L-30.7785 166.676C-32.3694 167.297 -33.6342 168.43 -34.3162 169.846C-34.9983 171.262 -35.0464 172.855 -34.4509 174.302C-33.8555 175.749 -32.6609 176.94 -31.1098 177.635C-29.5587 178.33 -27.7673 178.476 -26.0991 178.043L-14.7812 174.414V178.438C-14.7812 186.477 -11.1761 194.187 -4.75881 199.872C1.65845 205.556 10.3621 208.75 19.4375 208.75H101.563C110.638 208.75 119.342 205.556 125.759 199.872C132.176 194.187 135.781 186.477 135.781 178.438V171.109L151.804 165.949C152.703 165.716 153.538 165.322 154.257 164.792C154.977 164.262 155.567 163.606 155.989 162.866C156.412 162.126 156.658 161.317 156.714 160.489C156.769 159.662 156.632 158.832 156.312 158.053C155.991 157.274 155.493 156.562 154.849 155.96C154.205 155.358 153.428 154.879 152.567 154.554C151.706 154.229 150.779 154.063 149.843 154.068C148.907 154.073 147.982 154.247 147.125 154.582V154.551ZM-28.4687 142.062H149.469C151.284 142.062 153.025 141.424 154.308 140.287C155.591 139.15 156.313 137.608 156.313 136C156.313 134.392 155.591 132.85 154.308 131.713C153.025 130.576 151.284 129.938 149.469 129.938H-28.4687C-30.2838 129.938 -32.0246 130.576 -33.308 131.713C-34.5915 132.85 -35.3125 134.392 -35.3125 136C-35.3125 137.608 -34.5915 139.15 -33.308 140.287C-32.0246 141.424 -30.2838 142.062 -28.4687 142.062Z" fill="#CCC2AE"/>
</g>
</g>
<defs>
<clipPath id="clip0_1_2">
<rect width="200" height="200" fill="white"/>
</clipPath>
<clipPath id="clip1_1_2">
<rect width="219" height="194" fill="white" transform="translate(-49 39)"/>
</clipPath>
</defs>
</svg>
